<?xml version="1.0" encoding="UTF-8" standalone="no"?>
<!-- Created with Inkscape (http://www.inkscape.org/) -->

<svg
   xmlns:dc="http://purl.org/dc/elements/1.1/"
   xmlns:cc="http://creativecommons.org/ns#"
   xmlns:rdf="http://www.w3.org/1999/02/22-rdf-syntax-ns#"
   xmlns:svg="http://www.w3.org/2000/svg"
   xmlns="http://www.w3.org/2000/svg"
   xmlns:sodipodi="http://sodipodi.sourceforge.net/DTD/sodipodi-0.dtd"
   xmlns:inkscape="http://www.inkscape.org/namespaces/inkscape"
   version="1.1"
   id="svg33147"
   xml:space="preserve"
   width="666.66669"
   height="666.66669"
   viewBox="0 0 666.66669 666.66669"
   sodipodi:docname="desert-landscape-publicdomainvectors.org.svg"
   inkscape:version="0.92.4 (5da689c313, 2019-01-14)"><metadata
     id="metadata33153"><rdf:RDF><cc:Work
         rdf:about=""><dc:format>image/svg+xml</dc:format><dc:type
           rdf:resource="http://purl.org/dc/dcmitype/StillImage" /><dc:title></dc:title></cc:Work></rdf:RDF></metadata><defs
     id="defs33151"><clipPath
       clipPathUnits="userSpaceOnUse"
       id="clipPath33163"><path
         d="M 0,500 H 500 V 0 H 0 Z"
         id="path33161"
         inkscape:connector-curvature="0" /></clipPath><linearGradient
       x1="0"
       y1="0"
       x2="1"
       y2="0"
       gradientUnits="userSpaceOnUse"
       gradientTransform="matrix(-1.53e-5,510.71451,510.71451,1.53e-5,250.00049,3)"
       spreadMethod="pad"
       id="linearGradient33181"><stop
         style="stop-opacity:1;stop-color:#ffff00"
         offset="0"
         id="stop33177" /><stop
         style="stop-opacity:1;stop-color:#f7931e"
         offset="1"
         id="stop33179" /></linearGradient><clipPath
       clipPathUnits="userSpaceOnUse"
       id="clipPath33291"><path
         d="M 0,467.75 H 242 V 391 H 0 Z"
         id="path33289"
         inkscape:connector-curvature="0" /></clipPath><clipPath
       clipPathUnits="userSpaceOnUse"
       id="clipPath33305"><path
         d="M 195.68,493.67 H 500 V 384.01 H 195.68 Z"
         id="path33303"
         inkscape:connector-curvature="0" /></clipPath></defs><sodipodi:namedview
     pagecolor="#ffffff"
     bordercolor="#666666"
     borderopacity="1"
     objecttolerance="10"
     gridtolerance="10"
     guidetolerance="10"
     inkscape:pageopacity="0"
     inkscape:pageshadow="2"
     inkscape:window-width="797"
     inkscape:window-height="480"
     id="namedview33149"
     showgrid="false"
     inkscape:zoom="0.35399999"
     inkscape:cx="333.33334"
     inkscape:cy="333.33334"
     inkscape:window-x="0"
     inkscape:window-y="0"
     inkscape:window-maximized="0"
     inkscape:current-layer="g33155" /><g
     id="g33155"
     inkscape:groupmode="layer"
     inkscape:label="desert-landscape-publicdomainvectors.org"
     transform="matrix(1.3333333,0,0,-1.3333333,0,666.66667)"><g
       id="g33157"><g
         id="g33159"
         clip-path="url(#clipPath33163)"><g
           id="g33165"><g
             id="g33167"><g
               id="g33173"><g
                 id="g33175"><path
                   d="M 500,0 H 0 v 500 h 500 z"
                   style="fill:url(#linearGradient33181);stroke:none"
                   id="path33183"
                   inkscape:connector-curvature="0" /></g></g></g></g><path
           d="M 500,322.279 V 153.401 c -0.15,-0.062 -0.29,-0.105 -0.44,-0.168 C 253.11,65.036 248.28,85.909 0.4,154.199 0.26,154.241 0.13,154.283 0,154.325 v 132.801 c 16.05,0.294 24.35,33.326 30.57,33.326 10,0 46.26,-43.49 54.26,-26.186 8,17.303 54.17,21.86 79.17,21.86 25,0 54.62,-48.866 67.62,-45.401 13,3.465 87.79,96.01 99.79,75.241 12,-20.747 72.76,-30.218 78.76,-11.193 6,19.047 45.73,-1.406 88.36,-12.998 0.81,-0.231 1.4,6.657 1.409,4.935 0.011,-1.491 0.031,-2.961 0.061,-4.431"
           style="fill:#f9e29f;fill-opacity:1;fill-rule:nonzero;stroke:none"
           id="path33185"
           inkscape:connector-curvature="0" /><path
           d="M 0,218.06 V 85.714 c 0.15,-0.05 0.29,-0.082 0.44,-0.132 246.45,-69.118 251.28,-52.761 499.16,0.757 0.14,0.033 0.27,0.066 0.4,0.099 v 104.073 c -16.05,0.23 -24.35,26.117 -30.57,26.117 -10,0 -46.26,-34.082 -54.26,-20.522 -8,13.56 -54.17,17.131 -79.17,17.131 -25,0 -54.62,-38.295 -67.62,-35.579 -13,2.715 -87.79,75.24 -99.79,58.965 -12,-16.26 -72.76,-23.682 -78.76,-8.771 -6,14.925 -45.73,-1.104 -88.36,-10.188 -0.81,-0.181 -1.4,5.217 -1.41,3.867 C 0.05,220.363 0.03,219.211 0,218.06"
           style="fill:#ffc145;fill-opacity:1;fill-rule:nonzero;stroke:none"
           id="path33187"
           inkscape:connector-curvature="0" /><path
           d="M 500,172.561 V 73.985 c -0.15,-0.037 -0.29,-0.061 -0.44,-0.097 C 253.11,22.405 248.28,34.59 0.4,74.451 0.26,74.476 0.13,74.5 0,74.524 v 77.517 c 16.05,0.172 24.35,19.453 30.57,19.453 10,0 46.26,-25.385 54.26,-15.285 8,10.101 54.17,12.76 79.17,12.76 25,0 54.62,-28.523 67.62,-26.5 13,2.022 87.79,56.041 99.79,43.918 12,-12.111 72.76,-17.639 78.76,-6.533 6,11.118 45.73,-0.821 88.36,-7.587 0.81,-0.135 1.4,3.885 1.41,2.879 0.01,-0.87 0.03,-1.727 0.06,-2.585"
           style="fill:#f1a843;fill-opacity:1;fill-rule:nonzero;stroke:none"
           id="path33189"
           inkscape:connector-curvature="0" /><path
           d="M 0,120.471 V 40.057 h 500 v 104.451 l -1,1.596 c 0,0 -79,11.11 -85,0 -6,-11.11 -73,-6.06 -85,6.06 -12,12.119 -85,-32.319 -98,-34.34 -13,-2.019 -42,26.26 -67,26.26 -25,0 -74,-5.05 -82,-15.149 -8,-10.1 -41.425,12.337 -51.425,12.337 -6.63,0 -12.345,-23.498 -30.575,-20.801"
           style="fill:#f15a24;fill-opacity:1;fill-rule:nonzero;stroke:none"
           id="path33191"
           inkscape:connector-curvature="0" /><path
           d="M 500,79.62 V 0 H 0 V 103.42 L 1,105 c 0,0 79,11 85,0 6,-11 73,-6 85,6 12,12 85,-32 98,-34 13,-2 42,26 67,26 25,0 74,-5 82,-15 8,-10 19,-15 29,-15 6.63,0 34.77,3.95 53,6.62"
           style="fill:#1f0f05;fill-opacity:1;fill-rule:nonzero;stroke:none"
           id="path33193"
           inkscape:connector-curvature="0" /><path
           d="m 102.779,114.086 c -2.562,1.224 -11.973,-0.358 -21.02,-2.32 7.424,12.199 12.456,26.951 8.96,26.603 -3.05,-0.303 -11.228,-7.539 -18.36,-14.395 -2.889,11.729 -7.539,21.837 -9.575,19.643 -1.911,-2.06 -3.194,-11.35 -4.014,-20.483 -11.443,8.679 -25.812,15.257 -25.812,11.72 0,-2.858 5.558,-10.75 11.269,-18.108 -13.329,1.178 -26.741,-0.363 -25.088,-3.198 2.604,-4.47 29.249,-14.027 35.593,-16.252 -0.354,-2.265 0.671,-4.532 4.428,-6.328 11.93,-5.703 48.921,20.583 43.619,23.118"
           style="fill:#1f0f05;fill-opacity:1;fill-rule:nonzero;stroke:none"
           id="path33195"
           inkscape:connector-curvature="0" /><path
           d="m 294.154,80.622 c -1.522,0.728 -7.115,-0.212 -12.491,-1.378 4.411,7.25 7.402,16.017 5.324,15.811 -1.812,-0.181 -6.673,-4.481 -10.911,-8.556 -1.717,6.971 -4.48,12.978 -5.69,11.674 C 269.25,96.948 268.487,91.428 268,86 c -6.8,5.158 -15.34,9.067 -15.34,6.965 0,-1.698 3.303,-6.389 6.697,-10.762 -7.921,0.7 -15.892,-0.216 -14.91,-1.9 1.548,-2.657 17.383,-8.336 21.154,-9.658 -0.211,-1.346 0.398,-2.694 2.63,-3.761 7.091,-3.39 29.075,12.232 25.923,13.738"
           style="fill:#1f0f05;fill-opacity:1;fill-rule:nonzero;stroke:none"
           id="path33197"
           inkscape:connector-curvature="0" /><path
           d="m 483.952,89.262 c -15.491,-3.983 -25.152,-3.294 -22.994,-1.783 3.887,13.008 6.665,22.976 11.148,27.554 -15.376,-6.085 -24.009,-6.089 -22.786,-16.487 0.203,14.699 -11.022,3.311 -7.823,18.493 -14.077,-2.29 -3.199,-15.182 -12.069,-20.517 -6.249,10.333 -18.803,18.328 -15.046,14.991 -3.337,-10.29 -3.395,-8.994 7.25,-17.734 -11.135,-6.115 -25.895,-0.014 -21.995,-6.88 -2.419,1.633 32.232,-12.097 29.587,-17.686 -2.695,-1.135 8.514,-2.664 1.793,-3.967 14.91,-1.141 45.257,18.311 52.935,24.016"
           style="fill:#1f0f05;fill-opacity:1;fill-rule:nonzero;stroke:none"
           id="path33199"
           inkscape:connector-curvature="0" /><path
           d="m 174.046,100.515 c -0.015,0.245 -0.022,0.496 0,0.744 0.022,-0.248 0.014,-0.499 0,-0.744 m 8.472,6.828 c 5.398,7.113 11.796,17.004 11.796,17.004 0,0 -7.541,-5.988 -13.362,-11.654 3.84,10.327 8.137,23.939 8.137,23.939 0,0 -6.048,-10.715 -10.535,-19.968 1.817,12.294 3.496,27.986 3.496,27.986 0,0 -3.826,-14.15 -6.439,-25.873 -0.423,12.78 -1.565,28.659 -1.565,28.659 0,0 -1.143,-15.879 -1.566,-28.659 -2.613,11.723 -6.438,25.873 -6.438,25.873 0,0 1.678,-15.692 3.496,-27.986 -4.487,9.253 -10.536,19.968 -10.536,19.968 0,0 4.298,-13.612 8.138,-23.939 -5.821,5.666 -13.362,11.654 -13.362,11.654 0,0 6.398,-9.891 11.796,-17.004 -6.452,1.396 -14.576,1.934 -14.576,1.934 0,0 11.639,-7.497 18.004,-9.712 3.915,-1.361 4.858,-1.105 5.044,-0.277 0.185,-0.828 1.129,-1.084 5.044,0.277 6.364,2.215 18.004,9.712 18.004,9.712 0,0 -8.124,-0.538 -14.576,-1.934"
           style="fill:#1f0f05;fill-opacity:1;fill-rule:nonzero;stroke:none"
           id="path33201"
           inkscape:connector-curvature="0" /><path
           d="m 218.613,202.204 c 0.043,0.198 0.092,0.4 0.164,0.594 -0.037,-0.203 -0.098,-0.402 -0.164,-0.594 m 8.261,3.583 c 5.871,4.486 13.151,10.97 13.151,10.97 0,0 -7.333,-3.117 -13.223,-6.358 5.335,7.394 11.759,17.307 11.759,17.307 0,0 -7.183,-7.217 -12.798,-13.611 4.154,9.408 8.947,21.557 8.947,21.557 0,0 -6.166,-10.447 -10.83,-19.224 2.474,10.288 5.057,23.207 5.057,23.207 0,0 -4.405,-12.416 -7.555,-22.518 0.495,9.927 0.557,22.057 0.557,22.057 0,0 -2.113,-12.888 -3.369,-23.095 -1.544,8.368 -4.011,18.247 -4.011,18.247 0,0 0.434,-11.805 1.224,-20.888 -3.396,5.802 -8.095,12.238 -8.095,12.238 0,0 2.928,-9.299 5.669,-16.161 -4.839,2.534 -11.202,4.751 -11.202,4.751 0,0 7.636,-8.542 12.226,-11.709 2.823,-1.948 3.632,-1.951 3.962,-1.331 -0.034,-0.702 0.662,-1.114 4.085,-0.889 5.565,0.366 16.499,3.786 16.499,3.786 0,0 -6.599,1.358 -12.053,1.664"
           style="fill:#ffc145;fill-opacity:1;fill-rule:nonzero;stroke:none"
           id="path33203"
           inkscape:connector-curvature="0" /><path
           d="m 384.249,98.631 c -0.015,-4.383 -0.022,-4.193 0,-0.453 0.022,-3.74 0.015,-3.93 0,0.453 m 8.472,5.147 c 5.397,0.795 11.796,8.252 11.796,11.806 0,-3.554 -7.54,-8.067 -13.362,-6.785 3.839,2.23 8.138,12.493 8.138,13.173 0,-0.68 -6.049,-8.758 -10.536,-16.608 1.817,10.143 3.497,21.973 3.497,27.49 0,-5.517 -3.826,-16.185 -6.44,-22.945 -0.422,7.557 -1.565,19.528 -1.565,19.495 0,0.033 -1.143,-11.938 -1.565,-23.507 -2.614,10.772 -6.44,21.44 -6.44,16.181 0,5.259 1.68,-6.571 3.497,-12.598 -4.487,3.734 -10.535,11.812 -10.535,13.495 0,-1.683 4.298,-11.946 8.137,-14.905 -5.822,-0.553 -13.362,3.96 -13.362,1.331 0,2.629 6.399,-4.828 11.796,-8.441 -6.452,-0.695 -14.576,-0.29 -14.576,-4.193 0,3.903 11.64,-1.749 18.004,-4.921 3.915,0.475 4.858,0.669 5.044,-2.362 0.186,3.031 1.129,2.837 5.044,5.135 6.364,0.399 18.004,6.051 18.004,8.967 0,-2.916 -8.124,-3.321 -14.576,0.192"
           style="fill:#1f0f05;fill-opacity:1;fill-rule:nonzero;stroke:none"
           id="path33205"
           inkscape:connector-curvature="0" /><path
           d="m 132.994,105.453 c -0.038,0.244 -0.077,0.488 -0.125,0.734 0.084,0.285 0.161,0.571 0.254,0.855 2.591,7.883 8.179,12.432 13.089,11.048 -0.453,0.425 -0.94,0.79 -1.462,1.093 -4.692,2.714 -10.461,-0.74 -13.68,-7.789 -0.086,0.169 -0.166,0.342 -0.257,0.51 -1.375,2.513 -3.123,4.352 -4.938,5.416 -0.306,7.308 2.584,11.959 6.684,11.251 -0.467,0.333 -0.942,0.609 -1.426,0.825 -4.842,2.154 -8.464,-2.735 -8.088,-10.916 0.002,-0.051 0.008,-0.103 0.011,-0.154 -0.194,0.024 -0.386,0.037 -0.577,0.041 -6.593,5.972 -13.333,7.057 -15.957,2.094 -0.301,-0.57 -0.535,-1.195 -0.707,-1.872 2.738,2.804 7.68,2.01 12.808,-1.829 -0.295,-0.299 0.933,0.376 0.691,0.015 0.438,0.256 -0.601,-0.564 -0.125,-0.451 1.499,-1.185 3.006,-2.627 4.474,-4.313 0.24,-0.277 0.467,-0.563 0.7,-0.845 0.093,-0.296 0.193,-0.586 0.294,-0.877 -4.862,3.376 -9.885,2.936 -12.294,-1.621 -0.301,-0.569 -0.549,-1.18 -0.746,-1.827 3.405,3.99 9.696,2.79 14.889,-3.178 0.814,-0.935 1.555,-1.938 2.222,-2.986 -0.014,-2.266 0.272,-4.431 0.839,-6.354 -0.003,-0.005 -0.004,-0.009 -0.007,-0.013 0.003,0.002 0.006,0.004 0.009,0.006 0.512,-1.729 1.245,-3.267 2.185,-4.509 0.2,-0.461 0.427,-0.902 0.667,-1.332 -0.026,-0.125 -0.044,-0.256 -0.075,-0.377 0.061,0.062 0.114,0.136 0.172,0.204 0.092,-0.161 0.187,-0.321 0.285,-0.476 0.033,-1.672 -0.137,-3.263 -0.572,-4.677 0.378,0.44 0.719,0.943 1.02,1.513 0.27,0.511 0.49,1.062 0.676,1.636 0.789,-0.917 1.693,-1.697 2.709,-2.285 0.522,-0.303 1.051,-0.543 1.584,-0.725 -1.177,0.998 -2.154,2.278 -2.919,3.73 0.207,-0.08 0.415,-0.161 0.625,-0.219 -0.411,0.385 -0.786,0.827 -1.139,1.3 -0.111,0.258 -0.214,0.522 -0.311,0.789 0.157,1.396 0.139,2.887 -0.053,4.425 0.147,1.703 -0.026,3.623 -0.462,5.648 0.092,0.362 0.191,0.724 0.309,1.081 2.013,6.125 7.122,9.216 11.942,7.559 -0.462,0.394 -0.955,0.745 -1.478,1.046 -4.177,2.417 -8.876,0.953 -11.74,-3.194"
           style="fill:#1f0f05;fill-opacity:1;fill-rule:nonzero;stroke:none"
           id="path33207"
           inkscape:connector-curvature="0" /><path
           d="m 450.024,208.761 c -0.038,0.244 -0.076,0.488 -0.124,0.733 0.083,0.285 0.161,0.571 0.254,0.855 2.591,7.882 8.179,12.431 13.089,11.047 -0.453,0.426 -0.94,0.792 -1.463,1.094 -4.692,2.715 -10.461,-0.739 -13.678,-7.79 -0.087,0.171 -0.166,0.344 -0.258,0.512 -1.375,2.512 -3.122,4.351 -4.938,5.415 -0.306,7.309 2.584,11.96 6.684,11.252 -0.467,0.332 -0.943,0.608 -1.426,0.823 -4.843,2.154 -8.464,-2.733 -8.088,-10.915 0.002,-0.051 0.008,-0.102 0.011,-0.154 -0.193,0.023 -0.386,0.038 -0.577,0.042 -6.593,5.971 -13.333,7.056 -15.956,2.093 -0.302,-0.57 -0.536,-1.195 -0.707,-1.872 2.737,2.803 7.679,2.01 12.806,-1.83 -0.295,-0.297 0.934,0.377 0.692,0.016 0.438,0.256 -0.601,-0.564 -0.124,-0.451 1.498,-1.185 3.006,-2.627 4.472,-4.313 0.242,-0.276 0.468,-0.562 0.701,-0.845 0.092,-0.296 0.193,-0.586 0.294,-0.876 -4.862,3.375 -9.885,2.935 -12.293,-1.621 -0.302,-0.571 -0.55,-1.181 -0.747,-1.828 3.406,3.991 9.696,2.79 14.889,-3.178 0.814,-0.935 1.555,-1.939 2.222,-2.987 -0.014,-2.265 0.271,-4.429 0.84,-6.353 -0.003,-0.004 -0.005,-0.009 -0.008,-0.013 0.003,0.002 0.006,0.005 0.01,0.007 0.51,-1.73 1.244,-3.268 2.184,-4.511 0.2,-0.46 0.427,-0.901 0.667,-1.331 -0.026,-0.125 -0.044,-0.256 -0.075,-0.377 0.061,0.062 0.114,0.136 0.172,0.203 0.093,-0.161 0.187,-0.319 0.285,-0.475 0.033,-1.671 -0.138,-3.262 -0.571,-4.677 0.377,0.44 0.717,0.943 1.019,1.513 0.27,0.511 0.489,1.062 0.676,1.636 0.789,-0.917 1.692,-1.698 2.709,-2.286 0.522,-0.301 1.051,-0.543 1.584,-0.724 -1.177,0.998 -2.154,2.278 -2.919,3.73 0.207,-0.081 0.415,-0.16 0.625,-0.219 -0.411,0.384 -0.786,0.827 -1.14,1.299 -0.11,0.259 -0.213,0.524 -0.31,0.79 0.157,1.397 0.139,2.888 -0.053,4.425 0.147,1.703 -0.026,3.623 -0.462,5.649 0.092,0.362 0.192,0.723 0.309,1.08 2.013,6.125 7.122,9.216 11.942,7.559 -0.463,0.395 -0.955,0.744 -1.477,1.047 -4.178,2.417 -8.876,0.952 -11.742,-3.194"
           style="fill:#ffc145;fill-opacity:1;fill-rule:nonzero;stroke:none"
           id="path33209"
           inkscape:connector-curvature="0" /><path
           d="m 229.035,101.755 c -0.062,0.299 -0.134,0.598 -0.212,0.897 0.128,0.331 0.262,0.661 0.406,0.991 4.112,9.429 12.979,14.871 20.771,13.214 -0.719,0.509 -1.492,0.947 -2.321,1.308 -7.442,3.246 -16.591,-0.879 -21.699,-9.304 -0.135,0.201 -0.273,0.401 -0.417,0.599 -5.215,7.183 -13.801,9.845 -19.178,5.941 -0.536,-0.389 -1.019,-0.828 -1.449,-1.311 5.359,2.356 12.786,-0.445 17.481,-6.913 0.153,-0.21 0.3,-0.421 0.443,-0.634 -0.548,0.401 -1.121,0.785 -1.723,1.143 -7.631,4.533 -16.57,3.58 -19.963,-2.132 -0.339,-0.571 -0.608,-1.164 -0.812,-1.779 3.99,4.286 11.918,4.652 18.79,0.57 1.411,-0.838 2.675,-1.806 3.782,-2.862 -1.123,-4.644 -0.84,-9.242 0.653,-13.054 -0.004,-0.005 -0.008,-0.01 -0.012,-0.016 0.005,0.003 0.01,0.006 0.015,0.008 0.804,-2.049 1.953,-3.872 3.425,-5.351 1.704,-2.986 4.368,-5.482 7.788,-6.973 0.829,-0.363 1.668,-0.65 2.514,-0.868 -1.868,1.195 -3.433,2.72 -4.647,4.459 0.333,-0.098 0.669,-0.187 1.007,-0.258 -0.651,0.458 -1.254,0.973 -1.814,1.537 -2.427,4.262 -2.899,9.522 -0.814,14.303 3.195,7.327 11.302,11.024 18.951,9.042 -0.735,0.472 -1.516,0.89 -2.345,1.252 -6.624,2.888 -14.073,1.142 -18.62,-3.809"
           style="fill:#1f0f05;fill-opacity:1;fill-rule:nonzero;stroke:none"
           id="path33211"
           inkscape:connector-curvature="0" /><path
           d="m 325.996,87.984 -3.683,79.684 c -1.878,18.47 -17.02,32.766 -35.566,33.58 -11.454,0.504 -20.506,9.892 -20.59,21.356 -0.12,16.268 -0.281,38.14 -0.368,49.639 -0.033,4.487 3.595,8.137 8.082,8.137 4.464,0 8.083,-3.619 8.083,-8.083 v -34.368 c 0,-6.448 4.983,-11.799 11.414,-12.258 6.941,-0.496 12.808,5.075 12.672,12.032 l -1.764,90.408 c -0.166,8.519 6.615,15.556 15.134,15.705 9.318,0.164 16.646,-7.917 15.575,-17.174 l -7.776,-67.269 c -0.897,-7.763 5.893,-14.221 13.6,-12.936 5.27,0.877 9.284,5.203 9.767,10.523 l 3.359,36.965 c 0.557,6.139 6.247,10.488 12.317,9.417 6.291,-1.11 10.152,-7.521 8.192,-13.601 L 364.15,217.362 c -0.808,-2.506 -3.14,-4.205 -5.773,-4.205 -4.932,0 -8.94,-3.978 -8.977,-8.91 L 348.887,91.462 Z"
           style="fill:#1f0f05;fill-opacity:1;fill-rule:nonzero;stroke:none"
           id="path33213"
           inkscape:connector-curvature="0" /><path
           d="m 306.293,302.98 -13.328,10.432 16.806,-4.637 z"
           style="fill:#1f0f05;fill-opacity:1;fill-rule:nonzero;stroke:none"
           id="path33215"
           inkscape:connector-curvature="0" /><path
           d="m 361.67,280.959 -13.329,10.432 16.805,-4.637 z"
           style="fill:#1f0f05;fill-opacity:1;fill-rule:nonzero;stroke:none"
           id="path33217"
           inkscape:connector-curvature="0" /><path
           d="m 365.146,262.253 15.154,7.54 -11.419,-13.173 z"
           style="fill:#1f0f05;fill-opacity:1;fill-rule:nonzero;stroke:none"
           id="path33219"
           inkscape:connector-curvature="0" /><path
           d="m 328.059,315.567 15.152,7.54 -11.419,-13.172 z"
           style="fill:#1f0f05;fill-opacity:1;fill-rule:nonzero;stroke:none"
           id="path33221"
           inkscape:connector-curvature="0" /><path
           d="m 345.443,181.702 15.154,7.54 -11.419,-13.173 z"
           style="fill:#1f0f05;fill-opacity:1;fill-rule:nonzero;stroke:none"
           id="path33223"
           inkscape:connector-curvature="0" /><path
           d="m 313.827,256.62 -13.329,10.431 16.806,-4.636 z"
           style="fill:#1f0f05;fill-opacity:1;fill-rule:nonzero;stroke:none"
           id="path33225"
           inkscape:connector-curvature="0" /><path
           d="m 302.683,196.558 -16.923,-0.283 15.977,6.975 z"
           style="fill:#1f0f05;fill-opacity:1;fill-rule:nonzero;stroke:none"
           id="path33227"
           inkscape:connector-curvature="0" /><path
           d="m 314.696,327.32 -13.329,10.43 16.806,-4.635 z"
           style="fill:#1f0f05;fill-opacity:1;fill-rule:nonzero;stroke:none"
           id="path33229"
           inkscape:connector-curvature="0" /><path
           d="m 272.393,239.235 -13.33,10.431 16.806,-4.636 z"
           style="fill:#1f0f05;fill-opacity:1;fill-rule:nonzero;stroke:none"
           id="path33231"
           inkscape:connector-curvature="0" /><path
           d="m 329.454,151.88 -15.999,5.521 17.399,1.09 z"
           style="fill:#1f0f05;fill-opacity:1;fill-rule:nonzero;stroke:none"
           id="path33233"
           inkscape:connector-curvature="0" /><path
           d="m 325.111,113.551 -7.121,15.354 12.855,-11.776 z"
           style="fill:#1f0f05;fill-opacity:1;fill-rule:nonzero;stroke:none"
           id="path33235"
           inkscape:connector-curvature="0" /><path
           d="m 117.758,209.834 -1.223,26.46 c -0.624,6.133 -5.652,10.88 -11.81,11.151 -3.804,0.167 -6.809,3.284 -6.838,7.092 -0.039,5.401 -0.093,12.665 -0.122,16.483 -0.011,1.49 1.194,2.702 2.684,2.702 1.482,0 2.684,-1.201 2.684,-2.684 v -11.413 c 0,-2.141 1.655,-3.917 3.79,-4.07 2.305,-0.165 4.253,1.685 4.208,3.995 l -0.586,30.022 c -0.055,2.829 2.197,5.166 5.026,5.215 3.094,0.055 5.528,-2.629 5.172,-5.703 l -2.582,-22.338 c -0.298,-2.578 1.956,-4.722 4.516,-4.295 1.75,0.291 3.083,1.727 3.243,3.494 l 1.116,12.275 c 0.185,2.038 2.074,3.483 4.089,3.127 2.09,-0.368 3.372,-2.497 2.721,-4.516 l -3.418,-24.035 c -0.269,-0.833 -1.043,-1.397 -1.917,-1.397 -1.638,0 -2.969,-1.321 -2.981,-2.959 l -0.171,-37.452 z"
           style="fill:#ffc145;fill-opacity:1;fill-rule:nonzero;stroke:none"
           id="path33237"
           inkscape:connector-curvature="0" /><path
           d="m 111.215,281.227 -4.426,3.464 5.581,-1.54 z"
           style="fill:#ffc145;fill-opacity:1;fill-rule:nonzero;stroke:none"
           id="path33239"
           inkscape:connector-curvature="0" /><path
           d="m 129.604,273.915 -4.426,3.463 5.581,-1.539 z"
           style="fill:#ffc145;fill-opacity:1;fill-rule:nonzero;stroke:none"
           id="path33241"
           inkscape:connector-curvature="0" /><path
           d="m 130.759,267.703 5.032,2.504 -3.792,-4.375 z"
           style="fill:#ffc145;fill-opacity:1;fill-rule:nonzero;stroke:none"
           id="path33243"
           inkscape:connector-curvature="0" /><path
           d="m 118.443,285.407 5.032,2.503 -3.792,-4.374 z"
           style="fill:#ffc145;fill-opacity:1;fill-rule:nonzero;stroke:none"
           id="path33245"
           inkscape:connector-curvature="0" /><path
           d="m 124.216,240.954 5.032,2.504 -3.792,-4.374 z"
           style="fill:#ffc145;fill-opacity:1;fill-rule:nonzero;stroke:none"
           id="path33247"
           inkscape:connector-curvature="0" /><path
           d="m 113.717,265.832 -4.426,3.464 5.581,-1.54 z"
           style="fill:#ffc145;fill-opacity:1;fill-rule:nonzero;stroke:none"
           id="path33249"
           inkscape:connector-curvature="0" /><path
           d="m 110.016,245.888 -5.619,-0.094 5.305,2.315 z"
           style="fill:#ffc145;fill-opacity:1;fill-rule:nonzero;stroke:none"
           id="path33251"
           inkscape:connector-curvature="0" /><path
           d="m 114.005,289.309 -4.425,3.464 5.58,-1.54 z"
           style="fill:#ffc145;fill-opacity:1;fill-rule:nonzero;stroke:none"
           id="path33253"
           inkscape:connector-curvature="0" /><path
           d="m 99.958,260.059 -4.426,3.464 5.58,-1.54 z"
           style="fill:#ffc145;fill-opacity:1;fill-rule:nonzero;stroke:none"
           id="path33255"
           inkscape:connector-curvature="0" /><path
           d="m 118.906,231.051 -5.312,1.834 5.777,0.362 z"
           style="fill:#ffc145;fill-opacity:1;fill-rule:nonzero;stroke:none"
           id="path33257"
           inkscape:connector-curvature="0" /><path
           d="m 117.464,218.323 -2.365,5.099 4.269,-3.91 z"
           style="fill:#ffc145;fill-opacity:1;fill-rule:nonzero;stroke:none"
           id="path33259"
           inkscape:connector-curvature="0" /><path
           d="m 158.502,226.675 -0.705,15.248 c -0.359,3.534 -3.256,6.27 -6.805,6.426 -2.192,0.096 -3.924,1.893 -3.94,4.087 -0.023,3.113 -0.054,7.298 -0.071,9.499 -0.006,0.858 0.688,1.557 1.547,1.557 0.854,0 1.546,-0.693 1.546,-1.547 v -6.577 c 0,-1.234 0.954,-2.258 2.184,-2.346 1.329,-0.094 2.451,0.972 2.426,2.303 l -0.338,17.3 c -0.032,1.631 1.266,2.977 2.896,3.006 1.783,0.031 3.185,-1.515 2.981,-3.287 l -1.489,-12.872 c -0.171,-1.486 1.128,-2.722 2.603,-2.476 1.008,0.168 1.776,0.996 1.869,2.014 l 0.643,7.073 c 0.106,1.175 1.195,2.007 2.357,1.803 1.203,-0.213 1.942,-1.44 1.567,-2.603 l -1.97,-13.85 c -0.154,-0.48 -0.6,-0.805 -1.104,-0.805 -0.944,0 -1.711,-0.761 -1.718,-1.705 l -0.098,-21.582 z"
           style="fill:#ffc145;fill-opacity:1;fill-rule:nonzero;stroke:none"
           id="path33261"
           inkscape:connector-curvature="0" /><path
           d="m 154.732,267.816 -2.55,1.997 3.215,-0.888 z"
           style="fill:#ffc145;fill-opacity:1;fill-rule:nonzero;stroke:none"
           id="path33263"
           inkscape:connector-curvature="0" /><path
           d="m 165.329,263.603 -2.551,1.996 3.216,-0.888 z"
           style="fill:#ffc145;fill-opacity:1;fill-rule:nonzero;stroke:none"
           id="path33265"
           inkscape:connector-curvature="0" /><path
           d="m 165.994,260.023 2.9,1.443 -2.186,-2.521 z"
           style="fill:#ffc145;fill-opacity:1;fill-rule:nonzero;stroke:none"
           id="path33267"
           inkscape:connector-curvature="0" /><path
           d="m 158.897,270.225 2.899,1.443 -2.185,-2.521 z"
           style="fill:#ffc145;fill-opacity:1;fill-rule:nonzero;stroke:none"
           id="path33269"
           inkscape:connector-curvature="0" /><path
           d="m 162.224,244.608 2.899,1.444 -2.185,-2.521 z"
           style="fill:#ffc145;fill-opacity:1;fill-rule:nonzero;stroke:none"
           id="path33271"
           inkscape:connector-curvature="0" /><path
           d="m 156.173,258.945 -2.55,1.996 3.216,-0.887 z"
           style="fill:#ffc145;fill-opacity:1;fill-rule:nonzero;stroke:none"
           id="path33273"
           inkscape:connector-curvature="0" /><path
           d="m 154.041,247.451 -3.238,-0.054 3.057,1.335 z"
           style="fill:#ffc145;fill-opacity:1;fill-rule:nonzero;stroke:none"
           id="path33275"
           inkscape:connector-curvature="0" /><path
           d="m 156.34,272.474 -2.551,1.996 3.216,-0.887 z"
           style="fill:#ffc145;fill-opacity:1;fill-rule:nonzero;stroke:none"
           id="path33277"
           inkscape:connector-curvature="0" /><path
           d="m 148.245,255.618 -2.551,1.996 3.216,-0.887 z"
           style="fill:#ffc145;fill-opacity:1;fill-rule:nonzero;stroke:none"
           id="path33279"
           inkscape:connector-curvature="0" /><path
           d="m 159.164,238.902 -3.061,1.057 3.329,0.208 z"
           style="fill:#ffc145;fill-opacity:1;fill-rule:nonzero;stroke:none"
           id="path33281"
           inkscape:connector-curvature="0" /><path
           d="m 158.333,231.567 -1.363,2.939 2.46,-2.254 z"
           style="fill:#ffc145;fill-opacity:1;fill-rule:nonzero;stroke:none"
           id="path33283"
           inkscape:connector-curvature="0" /><g
           id="g33285"><g
             id="g33287" /><g
             id="g33297"><g
               clip-path="url(#clipPath33291)"
               id="g33295"
               style="opacity:0.30000299"><path
                 d="m 0,461 c 0,0 201,12 207,4 6,-8 -52.959,-14 -52.959,-14 L 242,432 113.594,428 c 0,0 89.594,-37 83.5,-37 C 191,391 0,401 0,401 Z"
                 style="fill:#ffc145;fill-opacity:1;fill-rule:nonzero;stroke:none"
                 id="path33293"
                 inkscape:connector-curvature="0" /></g></g></g><g
           id="g33299"><g
             id="g33301" /><g
             id="g33311"><g
               clip-path="url(#clipPath33305)"
               id="g33309"
               style="opacity:0.30000299"><path
                 d="m 460.44,440.75 -0.16,1.88 c 2.06,0.07 3.93,0.05 5.6,-0.08 -1.79,-0.58 -3.61,-1.18 -5.44,-1.8 m -204.2,48.25 34.58,-2.43 -95.14,-1.82 156.75,-11 c 0,0 -64.16,-17 -69.62,-29 -5.29,-11.61 66.08,10.84 70.7,12.3 -2.84,-1.51 -5.25,-3.01 -7.04,-4.47 l -71.76,-44.83 c 0,0 55.36,18.23 96.31,26.58 L 335.28,412 c 0,0 45.57,15.01 84.61,24.03 19.03,-1.67 36.48,3.43 39.92,4.51 -17.19,-5.83 -35.62,-13.35 -38.44,-19.54 -5.46,-12 70.94,12.38 70.94,12.38 L 413.3,384.01 c 1.02,0.33 47.65,15.64 86.7,24.49 v 85.17 z"
                 style="fill:#ffc145;fill-opacity:1;fill-rule:nonzero;stroke:none"
                 id="path33307"
                 inkscape:connector-curvature="0" /></g></g></g></g></g></g></svg>